<svg width="45" height="39" viewBox="0 0 45 39" xmlns="http://www.w3.org/2000/svg" xmlns:xlink="http://www.w3.org/1999/xlink"><title>Page 1</title><defs><path id="a" d="M0 38.496h45V.013H0z"/></defs><g fill="none" fill-rule="evenodd" opacity=".5"><g transform="translate(0 .075)"><mask id="b" fill="#fff"><use xlink:href="#a"/></mask><path d="M6.255 1.85c-2.442 0-4.428 1.998-4.428 4.454v17.953c0 2.456 1.986 4.454 4.428 4.454h20.54a.91.91 0 0 1 .59.216l7.873 6.675V29.63c0-.507.41-.918.914-.918h2.573c2.442 0 4.428-1.998 4.428-4.454V6.304c0-2.456-1.986-4.454-4.428-4.454H6.255zm29.917 36.646a.91.91 0 0 1-.589-.216l-9.12-7.732H6.254C2.806 30.548 0 27.726 0 24.258V6.303C0 2.835 2.806.014 6.255.014h32.49C42.194.013 45 2.834 45 6.303v17.953c0 3.469-2.806 6.29-6.255 6.29h-1.66v7.03a.918.918 0 0 1-.913.92z" fill="#FFF" mask="url(#b)"/></g><path d="M37.21 10.372H7.79a.916.916 0 0 1-.913-.918c0-.507.41-.918.914-.918h29.418c.505 0 .913.41.913.918a.916.916 0 0 1-.913.918m.001 5.881H7.79a.916.916 0 0 1-.913-.918c0-.508.41-.919.914-.919h29.418c.505 0 .913.411.913.919a.916.916 0 0 1-.913.918m.001 5.881H7.79a.916.916 0 0 1-.913-.919c0-.507.41-.918.914-.918h29.418c.505 0 .913.411.913.918a.916.916 0 0 1-.913.919" fill="#FFF"/></g></svg>