<svg width="48" height="30" viewBox="0 0 48 30" xmlns="http://www.w3.org/2000/svg"><title>elegant</title><g fill="#E5E5E5" fill-rule="evenodd"><path d="M39 12c0-.55-.45-1-1-1H10c-.55 0-1 .45-1 1s.45 1 1 1h13v16c0 .55.45 1 1 1s1-.45 1-1V13h13c.55 0 1-.45 1-1z"/><path d="M12 16H2V1c0-.55-.45-1-1-1S0 .45 0 1v28c0 .55.45 1 1 1s1-.45 1-1v-5h9v5c0 .55.45 1 1 1s1-.45 1-1V17c0-.55-.45-1-1-1zm-1 6H2v-4h9v4zM47 0c-.55 0-1 .45-1 1v15H36c-.55 0-1 .45-1 1v12c0 .55.45 1 1 1s1-.45 1-1v-5h9v5c0 .55.45 1 1 1s1-.45 1-1V1c0-.55-.45-1-1-1zm-1 22h-9v-4h9v4z"/></g></svg>