<svg width="45" height="36" viewBox="0 0 45 36" xmlns="http://www.w3.org/2000/svg"><title>map</title><g fill="#FFF" fill-rule="evenodd"><path d="M6.354 3.777a2.602 2.602 0 0 0-2.599 2.598 2.602 2.602 0 0 0 2.599 2.599 2.602 2.602 0 0 0 2.598-2.599 2.602 2.602 0 0 0-2.598-2.598zm0 3.327a.73.73 0 1 1 .002-1.46.73.73 0 0 1-.002 1.46z"/><path d="M43.141 11.72V5.122a2.324 2.324 0 0 0-2.318-2.32l-29.225-.014a6.424 6.424 0 0 0-.783-.936A6.3 6.3 0 0 0 6.264.022C2.83.07.02 2.902 0 6.337a6.375 6.375 0 0 0 .696 2.932l1.52 2.55v21.26a2.322 2.322 0 0 0 2.318 2.319l36.287.02c1.28 0 2.32-1.042 2.32-2.32v-12.28s1.067-1.788 1.076-1.806a6.374 6.374 0 0 0 .695-2.893c0-1.655-.628-3.21-1.77-4.398zm-6.39-7.051l-4.514 4.513-4.517-4.518 9.03.005zm-5.703 5.702l-7.866 7.866-2.876-2.876v-.001l-2.158-2.157 7.866-7.865 5.034 5.033zm-15.663 11.1l4.326-4.326 5.559 5.559-4.327 4.326-5.558-5.558zm1.054 3.435l-4.853 4.853-3.889-3.89 4.854-4.852 3.888 3.889zM12.012 9.269a6.374 6.374 0 0 0 .46-4.613l11.838.006-7.351 7.351-2.632-2.632a.841.841 0 0 0-1.19 1.19l5.385 5.385-4.327 4.326-3.504-3.504a.841.841 0 0 0-1.19 1.19l1.86 1.86-7.276 7.274V14.953l.664 1.113c.34.57.94.91 1.605.91.664 0 1.264-.34 1.604-.91l4.054-6.797zM2.346 8.39a4.433 4.433 0 0 1-.477-2.043c.015-2.424 1.998-4.423 4.42-4.456a4.46 4.46 0 0 1 3.213 1.29 4.508 4.508 0 0 1 .776 1.02c.365.657.56 1.4.56 2.173 0 .71-.16 1.388-.477 2.016l-4.006 6.717L2.346 8.39zm2.189 25.137a.45.45 0 0 1-.45-.45v-3.596l2.423-2.422 6.473 6.473-8.446-.005zm10.826.006l-2.585-2.586 4.853-4.853 7.444 7.444-9.712-.005zm6.772-5.314l4.327-4.327 3.141 3.142-4.326 4.327-3.142-3.142zm5.32 5.32l-.989-.989 4.327-4.326 5.32 5.32-8.657-.004zm13.368.008l-2.329-.002-6.511-6.51 1.96-1.96a.841.841 0 1 0-1.19-1.19l-1.96 1.96-3.736-3.737a.907.907 0 0 1-.001 0l-2.682-2.683 3.19-3.189 1.652 1.653a.932.932 0 0 0 1.321 0 .935.935 0 0 0 0-1.322l-1.652-1.653L39.129 4.67h1.692c.249.001.45.203.45.451v5.25a6.306 6.306 0 0 0-2.802-.605c-3.434.048-6.244 2.88-6.264 6.315a6.375 6.375 0 0 0 .696 2.931c.009.018 4.053 6.797 4.053 6.797.34.571.94.912 1.605.912a1.85 1.85 0 0 0 1.604-.911l1.109-1.859v9.146a.45.45 0 0 1-.45.45zm1.745-15.414l-1.18 1.978-.001.003-2.825 4.736-4.008-6.717a4.433 4.433 0 0 1-.477-2.042c.014-2.424 1.997-4.423 4.42-4.457a4.456 4.456 0 0 1 3.212 1.291 4.452 4.452 0 0 1 1.336 3.193c0 .71-.16 1.388-.477 2.015z"/><path d="M38.559 13.52a2.602 2.602 0 0 0-2.599 2.6 2.602 2.602 0 0 0 2.599 2.598 2.602 2.602 0 0 0 2.598-2.599 2.601 2.601 0 0 0-2.598-2.599zm0 3.328a.73.73 0 1 1 .001-1.46.73.73 0 0 1-.001 1.46z"/></g></svg>