<svg width="45" height="39" viewBox="0 0 45 39" xmlns="http://www.w3.org/2000/svg"><title>Page 1</title><path d="M43.5 30.75H42V4.5c0-.827-.673-1.5-1.5-1.5h-33V1.5h36v29.25zm-3 3H39V7.5c0-.827-.673-1.5-1.5-1.5h-33V4.5h36v29.25zm-2.999.757v2.243H1.5V26.586l12.75-11.333 13.002 11.556a.787.787 0 0 0 .545.189.748.748 0 0 0 .518-.255L33 21.389l4.5 5.145.002 7.96-.002.006.001.007zM1.5 7.5h36v16.755l-3.935-4.499a.773.773 0 0 0-1.13 0l-4.752 5.431L14.748 13.69a.747.747 0 0 0-.996 0L1.5 24.58V7.5zm42-7.5h-36C6.673 0 6 .673 6 1.5V3H4.5C3.673 3 3 3.673 3 4.5V6H1.5C.673 6 0 6.673 0 7.5v29.25c0 .827.673 1.5 1.5 1.5h36c.827 0 1.5-.673 1.5-1.5v-1.5h1.5c.827 0 1.5-.673 1.5-1.5v-1.5h1.5c.827 0 1.5-.673 1.5-1.5V1.5c0-.827-.673-1.5-1.5-1.5z" fill="#FFF" fill-rule="evenodd"/></svg>